<?xml version="1.0" standalone="no"?>
<!DOCTYPE svg PUBLIC "-//W3C//DTD SVG 1.1//EN" "http://www.w3.org/Graphics/SVG/1.1/DTD/svg11.dtd">
<svg class="icon" viewBox="0 0 1024 1024" version="1.1" xmlns="http://www.w3.org/2000/svg" width="32" height="32">
    <path d="M556.586366 605.797969l0.170758 20.844582a41.896513 41.896513 0 1 1-83.793027 0v-21.003142a83.841814 83.841814 0 0 1 66.973437-81.926894c68.522449-13.855732 111.565475-79.194778 98.063454-148.802755a124.40886 124.40886 0 0 0-97.575577-97.514592c-38.43258-7.415744-75.925996 1.792951-105.479198 26.125861a125.494389 125.494389 0 0 0-45.799536 97.038911 41.884316 41.884316 0 0 1-83.756436 0 208.90931 208.90931 0 0 1 76.26751-161.658337c48.458471-39.957199 112.211913-55.898609 174.733464-43.726055 82.036666 15.929213 147.839196 81.719546 163.792803 163.768408 22.113065 113.443805-51.312556 224.167691-163.597652 246.854013z m-41.78674 221.984437a57.728151 57.728151 0 1 1 57.715953-57.72815 57.728151 57.728151 0 0 1-57.715953 57.72815z m428.661706-53.227477c119.713036-193.041082 98.197621-449.652652-67.010028-620.202563-194.992593-201.249627-516.211392-206.372345-717.485413-11.379752s-206.372345 516.211392-11.391949 717.485414c166.268783 171.63544 424.283002 200.493417 621.483243 84.41507L971.819234 1021.823638c25.845331 9.757558 51.422329-14.953457 42.433179-41.115909z"
          fill="#1296db"/>
</svg>